<?xml version="1.0" encoding="utf-8"?>
<!-- Generator: Adobe Illustrator 16.0.0, SVG Export Plug-In . SVG Version: 6.00 Build 0)  -->
<!DOCTYPE svg PUBLIC "-//W3C//DTD SVG 1.1 Tiny//EN" "http://www.w3.org/Graphics/SVG/1.1/DTD/svg11-tiny.dtd">
<svg version="1.1" baseProfile="tiny" id="Layer_1" xmlns="http://www.w3.org/2000/svg" xmlns:xlink="http://www.w3.org/1999/xlink"
	 x="0px" y="0px" width="768px" height="205.372px" viewBox="0 0 768 205.372" xml:space="preserve">
<g>
	<g>
		<path fill="#00529B" d="M77.086,162.27H30.199c0,4.567,1.165,8.04,3.482,10.406c2.332,2.372,5.823,3.55,10.478,3.55
			c2.357,0,4.418-0.435,6.181-1.287c1.745-0.862,3.238-2.346,4.468-4.47h21.421c-0.896,3.674-2.383,6.876-4.467,9.613
			c-2.087,2.739-4.572,4.971-7.472,6.739c-2.901,1.746-6.062,3.059-9.483,3.91c-3.431,0.863-6.945,1.282-10.532,1.282
			c-5.228,0-10.036-0.721-14.43-2.204c-4.39-1.463-8.216-3.599-11.454-6.426c-3.254-2.813-5.791-6.298-7.622-10.456
			c-1.831-4.177-2.739-8.946-2.739-14.327c0-5.227,0.857-9.919,2.554-14.083c1.708-4.168,4.085-7.67,7.132-10.534
			c3.038-2.859,6.68-5.06,10.908-6.612c4.228-1.543,8.915-2.329,14.062-2.329c5.464,0,10.324,0.82,14.561,2.449
			c4.245,1.633,7.835,3.966,10.78,6.983c2.943,3.019,5.176,6.674,6.733,10.959c1.543,4.285,2.326,9.117,2.326,14.506V162.27z
			 M56.515,149.42c-0.572-3.021-2.061-5.43-4.464-7.229c-2.415-1.8-5.125-2.694-8.143-2.694c-3.266,0-6.122,0.837-8.567,2.515
			c-2.455,1.663-4.003,4.134-4.655,7.408H56.515z"/>
		<path fill="#00529B" d="M84.06,127.129h28.284l11.261,12.981l11.267-12.981h28.768L137.684,155.9l31.347,34.039h-29.264
			l-16.164-18.607l-16.158,18.607h-29.26l31.347-34.039L84.06,127.129z"/>
		<path fill="#00529B" d="M198.784,189.938h-22.16V145.49h-7.226v-18.361h7.226v-18.86h22.16v18.86h12.602v18.361h-12.602V189.938z"
			/>
		<path fill="#00529B" d="M240.769,137.413h0.248c2.125-3.915,4.931-6.753,8.451-8.51c3.502-1.748,7.468-2.628,11.87-2.628h4.289
			v21.426c-1.552-0.9-3.081-1.479-4.59-1.72c-1.512-0.245-3.118-0.365-4.834-0.365c-3.109,0-5.655,0.487-7.659,1.469
			c-2.002,0.98-3.564,2.313-4.712,3.98c-1.144,1.671-1.939,3.676-2.383,6.004c-0.458,2.315-0.678,4.833-0.678,7.52v25.349H218.61
			v-62.81h22.159V137.413z"/>
		<path fill="#00529B" d="M342.753,189.938h-22.279v-6.984h-0.245c-1.959,3.109-4.701,5.39-8.206,6.854
			c-3.508,1.483-7.099,2.204-10.771,2.204c-4.652,0-8.92-0.894-12.795-2.686c-3.875-1.796-7.221-4.228-10.037-7.283
			c-2.815-3.058-5.002-6.631-6.557-10.711c-1.552-4.083-2.323-8.376-2.323-12.857c0-4.49,0.771-8.755,2.323-12.787
			c1.555-4.049,3.692-7.6,6.432-10.654c2.728-3.069,6.037-5.495,9.917-7.294c3.872-1.797,8.138-2.696,12.79-2.696
			c3.673,0,7.249,0.678,10.714,2.027c3.47,1.347,6.386,3.409,8.758,6.176v-6.116h22.279V189.938z M300.826,145.556
			c-1.754,0.787-3.24,1.792-4.476,3.067c-1.222,1.258-2.161,2.745-2.813,4.47c-0.649,1.706-0.977,3.554-0.977,5.506
			c0,3.995,1.241,7.349,3.733,10.036c2.486,2.696,6.014,4.041,10.586,4.041c4.578,0,8.105-1.344,10.594-4.041
			c2.483-2.688,3.738-6.041,3.738-10.036c0-1.953-0.336-3.801-0.982-5.506c-0.655-1.726-1.6-3.212-2.816-4.47
			c-1.219-1.275-2.713-2.28-4.464-3.067c-1.766-0.777-3.787-1.167-6.07-1.167C304.595,144.389,302.58,144.779,300.826,145.556z"/>
	</g>
	<path fill-rule="evenodd" fill="#00529B" stroke="#00529B" stroke-width="0.1453" d="M545.611,184.646
		c-7.038,4.213-13.988,8.521-20.992,12.79c-4.814-4.08-9.029-7.741-12.136-13.12c-9.225-16.019-0.666-48.895-4.592-70.848
		c-2.347-0.965-5.199,0.208-7.875,0c0.646-5.58,1.753-10.713,2.297-16.397c4.391-0.709,8.454-1.782,12.79-2.622
		c4.083-0.789,9.105-2.505,13.126-2.297c0.452,0.02,0.657-0.424,0.979-0.322c1.47,0.424,5.895,5.333,6.228,6.552
		c1.253,4.559,0,12.095,0,18.043c0,11.953,0,23.458,0,35.746c0,6.261-1.028,13.188,0,17.713c0.675,2.916,3.759,5.142,5.259,7.209
		C542.741,179.934,543.938,181.989,545.611,184.646z M532.488,170.868c-1.125-4.814,0-11.75,0-17.712c0-17.869,0-37.554,0-54.114
		c-1.757-2.044-3.184-4.288-5.907-3.605c-5.724,1.41-15.472,2.802-21.643,3.932c-0.384,3.759-0.882,7.415-1.643,10.831
		c10.632-2.898,8.205,10.433,8.205,18.678c0,7.61,0,13.996,0,20.004c0,13.513-0.731,28.73,4.26,35.764
		c2.944,4.137,5.103,5.033,9.514,9.174c5.13-3.511,10.515-6.765,16.069-9.834C540.353,179.19,533.659,175.885,532.488,170.868z"/>
	<path fill-rule="evenodd" fill="#00529B" stroke="#00529B" stroke-width="0.1453" d="M436.72,103.961c0,8.203,0,16.391,0,24.588
		c-5.13,2.081-11.005,3.65-14.754,0.664c-3.304-2.64-2.229-7.059-4.266-10.495c-1.429-2.403-6.318-4.47-9.51-4.914
		c-5.899-0.814-11.129,1.29-14.433,3.929c-16.866,13.468-15.223,60.373,15.088,58.052c9.279-0.708,15.95-6.822,22.627-9.503
		c2.451,6.175,5.051,12.214,7.872,18.034c-11.07,6.634-20.365,12.083-36.406,12.126c-24.085,0.077-40.121-13.068-46.572-31.812
		c-7.329-21.268-0.524-45.911,13.447-58.706c7.271-6.651,17.732-11.887,30.835-12.798C416.809,92.017,428.099,96.809,436.72,103.961
		z M400.648,96.086c-14.803,1.02-25.369,7.58-33.133,17.058c-16.03,19.614-13.92,52.214,2.298,68.216
		c15.19,14.994,49.089,15.957,65.591,1.646c-1.981-4.254-3.459-9.006-5.896-12.79c-10.984,8.365-26.607,11.719-37.062,4.586
		c-17.567-11.975-15.666-51.01,2.297-61.334c7.372-4.233,20.836-3.351,25.252,3.277c2.081,3.124,0.862,9.196,4.917,10.834
		c3.019,1.21,5.991-0.356,8.853-0.985c0-7.112,0-14.228,0-21.326C425.639,99.056,415.326,95.072,400.648,96.086z"/>
	<path fill-rule="evenodd" fill="#FFFFFF" d="M541.344,183.985c-5.555,3.07-10.939,6.324-16.069,9.834
		c-4.411-4.141-6.569-5.037-9.514-9.174c-4.991-7.033-4.26-22.251-4.26-35.764c0-6.008,0-12.395,0-20.004
		c0-8.246,2.427-21.577-8.205-18.678c0.761-3.416,1.259-7.072,1.643-10.831c6.171-1.13,15.919-2.522,21.643-3.932
		c2.724-0.683,4.15,1.561,5.907,3.605c0,16.56,0,36.245,0,54.114c0,5.962-1.125,12.898,0,17.712
		C533.659,175.885,540.353,179.19,541.344,183.985z M529.866,171.851c-1.048-4.846,0-11.66,0-17.71c0-17.79,0-37.33,0-53.787
		c-1.179-1.153-1.773-1.876-3.61-1.973c-5.228-0.259-13.205,3.306-18.7,3.613c-0.492,1.569-0.351,3.787-0.977,5.245
		c9.513,0.543,7.551,10.309,7.551,20.992c0,5.892,0,11.911,0,17.38c0,12.198-1.256,25.426,1.631,33.13
		c1.999,5.324,5.729,7.804,9.843,11.474c3.71-2.73,8.13-4.772,11.808-7.545C535.822,179.139,530.76,175.984,529.866,171.851z"/>
	<path fill-rule="evenodd" fill="#FFFFFF" d="M433.765,105.268c0,7.098,0,14.213,0,21.326c-2.861,0.629-5.834,2.195-8.853,0.985
		c-4.055-1.638-2.836-7.71-4.917-10.834c-4.416-6.628-17.88-7.511-25.252-3.277c-17.962,10.325-19.864,49.359-2.297,61.334
		c10.454,7.133,26.077,3.778,37.062-4.586c2.438,3.784,3.915,8.536,5.896,12.79c-16.502,14.31-50.4,13.347-65.591-1.646
		c-16.218-16.001-18.328-48.602-2.298-68.216c7.764-9.478,18.33-16.038,33.133-17.058
		C415.326,95.072,425.639,99.056,433.765,105.268z M399.327,99.042c-25.018,1.942-40.401,22.257-40.333,47.221
		c0.072,28.329,19.315,46.25,48.207,44.277c10.15-0.692,16.237-4.115,24.603-8.198c-0.798-2.912-2.109-5.333-3.274-7.866
		c-11.546,8.305-30.437,9.954-40.675,0.327c-14.914-14.027-13.437-48.738,1.637-61.334c8.197-6.85,27.291-8.023,33.128,2.298
		c2.052,3.633,1.312,12.332,8.202,8.857c0.754-5.372,0.111-12.125,0.324-18.04C423.027,101.163,413.327,97.951,399.327,99.042z"/>
	<path fill-rule="evenodd" fill="#00A9B4" d="M537.411,182.669c-3.678,2.773-8.098,4.815-11.808,7.545
		c-4.114-3.67-7.844-6.15-9.843-11.474c-2.887-7.705-1.631-20.933-1.631-33.13c0-5.469,0-11.488,0-17.38
		c0-10.683,1.962-20.448-7.551-20.992c0.626-1.458,0.484-3.676,0.977-5.245c5.495-0.307,13.473-3.872,18.7-3.613
		c1.837,0.097,2.432,0.82,3.61,1.973c0,16.457,0,35.997,0,53.787c0,6.05-1.048,12.864,0,17.71
		C530.76,175.984,535.822,179.139,537.411,182.669z"/>
	<path fill-rule="evenodd" fill="#00A9B4" d="M431.145,106.583c-0.213,5.915,0.43,12.668-0.324,18.04
		c-6.891,3.474-6.15-5.225-8.202-8.857c-5.837-10.321-24.931-9.148-33.128-2.298c-15.073,12.596-16.551,47.307-1.637,61.334
		c10.238,9.627,29.129,7.978,40.675-0.327c1.165,2.534,2.477,4.954,3.274,7.866c-8.365,4.083-14.452,7.506-24.603,8.198
		c-28.891,1.973-48.135-15.948-48.207-44.277c-0.068-24.964,15.315-45.279,40.333-47.221
		C413.327,97.951,423.027,101.163,431.145,106.583z"/>
	<path fill-rule="evenodd" fill="#00529B" stroke="#00529B" stroke-width="0.1453" d="M676.145,113.144
		c5.644-1.229,10.515,1.919,11.146,7.209c1.598,13.391-18.085,13.385-18.04,1.318C669.268,116.745,671.888,114.063,676.145,113.144z
		 M671.879,119.046c-3.84,12.023,13.81,12.254,13.441,2.289c-0.156-3.946-3.761-7.698-9.176-6.224
		C672.662,116.057,672.067,118.423,671.879,119.046z"/>
	<path fill-rule="evenodd" fill="#FFFFFF" d="M676.145,115.111c5.415-1.474,9.02,2.278,9.176,6.224
		c0.368,9.965-17.281,9.734-13.441-2.289C672.067,118.423,672.662,116.057,676.145,115.111z M674.822,116.424
		c0,3.385,0,6.779,0,10.17c0.662,0,1.322,0,1.971,0c0.211-1.219-0.421-3.271,0.328-3.94c2.392,0.458,2.195,5.239,5.581,3.599
		c-0.88-1.298-2.07-2.297-2.623-3.926C685.851,120.321,680.021,113.434,674.822,116.424z"/>
	
		<path fill-rule="evenodd" fill="#00529B" stroke="#00529B" stroke-width="0.1453" stroke-linecap="round" stroke-linejoin="round" d="
		M680.079,122.326c0.553,1.629,1.743,2.628,2.623,3.926c-3.386,1.64-3.189-3.141-5.581-3.599c-0.749,0.669-0.117,2.722-0.328,3.94
		c-0.648,0-1.309,0-1.971,0c0-3.391,0-6.785,0-10.17C682.016,114.872,685.253,119.911,680.079,122.326z M676.793,120.689
		c1.889,0.04,3.991,0.27,3.938-1.643c-0.496-1.142-2.24-1.037-3.938-0.977C676.793,118.935,676.793,119.809,676.793,120.689z"/>
	<path fill-rule="evenodd" fill="#FFFFFF" d="M676.793,118.069c1.698-0.06,3.442-0.166,3.938,0.977
		c0.053,1.913-2.05,1.683-3.938,1.643C676.793,119.809,676.793,118.935,676.793,118.069z"/>
	<path fill-rule="evenodd" fill="#00529B" stroke="#00529B" stroke-width="0.1453" d="M638.422,126.594
		c6.081-6.683,23.463-7.753,28.864,0.328c-1.958,7.109-4.626,13.524-6.559,20.659c-2.088,0.325-3.867,0.937-5.573,1.635
		c-2.359-1.145-3.468-3.528-5.911-4.581c-5.582-0.561-8.695,1.36-11.146,3.932c0.77,9.068-0.168,19.845,0.649,28.854
		c2.973,0.658,7.015,0.205,10.497,0.333c-1.024,5.968-2.151,11.854-3.604,17.386c-11.261,0-22.521,0-33.785,0
		c-1.193-17.061,0.757-37.268-0.986-53.787c-0.788-0.626-2.627-0.206-3.929-0.333c1.555,6.125,2.899,13.672,2.292,22.635
		c-1.423,21.334-15.619,34.224-38.704,32.789c-12.4-0.772-22.061-6.865-27.217-17.046c-5.051-9.988-6.6-24.46-2.295-37.067
		c3.514-10.276,11.443-18.014,23.281-20.657c13.69-3.066,32.934,1.455,39.683,13.772c0.219-3.721,1.241-6.631,1.314-10.495
		c7.082-1.3,19.096-4.125,25.916-5.244C633.909,119.26,637.164,124.123,638.422,126.594z M630.555,122.983
		c-5.904-0.319-16.946,4.337-22.632,4.263c-0.061,3.989-1.183,6.904-1.313,10.822c8.556-1.796,7.876,5.618,7.876,12.462
		c0,14.177,0,30.007,0,41.658c9.612,0,19.23,0,28.854,0c0.828-3.768,1.787-7.403,2.3-11.483c-3.553,0.043-7.195,0.19-9.188-1.31
		c-2.158-8.892-0.253-21.827-1.31-31.815c3.394-4.042,8.869-7.688,15.42-5.568c2.451,0.782,3.805,4.245,6.225,3.599
		c2.506-0.666,3.554-6.034,4.256-8.198c1.263-3.761,1.854-6.73,2.959-9.833c-3.836-2.591-7.998-4.448-13.774-3.614
		c-6.41,0.929-11.107,6.916-14.761,8.853C636.229,127.023,634.202,123.177,630.555,122.983z M545.611,139.053
		c-6.087,12.032-4.123,34.351,2.952,43.616c7.787,10.236,26.117,14.888,41.321,7.87c9.413-4.348,15.494-14.806,16.397-26.564
		c1.937-25.209-10.552-42.076-35.755-40.01C557.774,125.013,549.864,130.631,545.611,139.053z"/>
	<path fill-rule="evenodd" fill="#00529B" stroke="#00529B" stroke-width="0.1453" d="M467.225,121.014
		c18.391-1.507,31.146,7.442,36.071,19.343c5.47,13.214,2.955,32.664-2.946,41.985c-9.186,14.498-33.984,18.664-49.525,9.182
		c-3.923-2.394-7.863-6.696-10.17-10.819c-6.699-11.992-6.42-34.406,0.988-45.915C446.488,127.249,453.709,122.118,467.225,121.014z
		 M448.197,131.508c-14.324,13.49-11.398,46.489,2.958,56.736c13.273,9.493,35.985,6.384,45.259-5.238
		c6.987-8.784,10.128-29.107,3.603-42.962c-4.482-9.553-15.51-17.405-32.468-16.079C458.48,124.68,453.128,126.878,448.197,131.508z
		"/>
	<path fill-rule="evenodd" fill="#FFFFFF" d="M635.466,132.818c3.653-1.937,8.351-7.924,14.761-8.853
		c5.776-0.834,9.938,1.023,13.774,3.614c-1.105,3.104-1.696,6.073-2.959,9.833c-0.702,2.164-1.75,7.532-4.256,8.198
		c-2.42,0.646-3.773-2.816-6.225-3.599c-6.551-2.119-12.026,1.526-15.42,5.568c1.057,9.988-0.849,22.923,1.31,31.815
		c1.993,1.5,5.636,1.353,9.188,1.31c-0.513,4.08-1.472,7.715-2.3,11.483c-9.624,0-19.242,0-28.854,0c0-11.651,0-27.481,0-41.658
		c0-6.844,0.68-14.258-7.876-12.462c0.131-3.917,1.253-6.833,1.313-10.822c5.686,0.074,16.728-4.582,22.632-4.263
		C634.202,123.177,636.229,127.023,635.466,132.818z M632.85,127.9c-1.107-0.68-1.799-2.218-3.276-1.97
		c-5.066,0.865-13.448,2.926-19.026,3.613c-0.102,1.976-0.699,3.457-0.66,5.578c4.599,0.321,7.133,3.801,7.543,8.197
		c1.184,12.508-0.895,32.859,0,45.917c7.87,0,15.744,0,23.614,0c0.577-1.728,0.84-3.755,1.318-5.577
		c-13.313,1.671-8.946-15.033-9.513-27.553c-0.125-2.831-1.049-7.619-0.66-9.182c0.436-1.757,3.815-4.481,5.575-5.572
		c6.486-4.018,14.398-2.856,18.693,0.977c1.211-4.701,2.733-9.083,4.27-13.45c-7.68-5.163-16.113-0.328-20.991,4.273
		c-2.149,2.024-3.394,5.888-6.887,5.569C632.85,135.122,632.85,131.508,632.85,127.9z"/>
	<path fill-rule="evenodd" fill="#FFFFFF" d="M467.549,123.965c16.958-1.326,27.985,6.526,32.468,16.079
		c6.525,13.854,3.385,34.178-3.603,42.962c-9.273,11.622-31.985,14.731-45.259,5.238c-14.356-10.247-17.282-43.246-2.958-56.736
		C453.128,126.878,458.48,124.68,467.549,123.965z M445.25,140.044c-4.018,7.346-5.484,26.587,0,37.048
		c6.102,11.65,26.645,19.056,42.304,9.842c8.613-5.065,13.123-16.212,13.123-28.526c0-21.272-12.164-34.098-34.765-31.487
		C455.617,128.103,448.857,133.433,445.25,140.044z"/>
	<path fill-rule="evenodd" fill="#FFFFFF" d="M570.527,123.965c25.203-2.066,37.691,14.8,35.755,40.01
		c-0.903,11.759-6.984,22.217-16.397,26.564c-15.204,7.018-33.534,2.366-41.321-7.87c-7.075-9.265-9.039-31.584-2.952-43.616
		C549.864,130.631,557.774,125.013,570.527,123.965z M544.623,153.808c-1.133,15.506,3.875,27.749,13.447,33.127
		c16.716,9.39,37.774,1.896,43.295-13.12c3.673-10.005,3.929-23.085-1.31-33.458c-4.727-9.327-15.904-15.039-30.833-13.436
		C554.213,128.524,545.723,138.643,544.623,153.808z"/>
	<path fill-rule="evenodd" fill="#00A9B4" d="M632.85,138.72c3.493,0.318,4.737-3.545,6.887-5.569
		c4.878-4.601,13.312-9.436,20.991-4.273c-1.536,4.367-3.059,8.749-4.27,13.45c-4.295-3.833-12.207-4.995-18.693-0.977
		c-1.76,1.09-5.14,3.815-5.575,5.572c-0.389,1.563,0.535,6.352,0.66,9.182c0.566,12.52-3.801,29.224,9.513,27.553
		c-0.479,1.822-0.741,3.849-1.318,5.577c-7.87,0-15.744,0-23.614,0c-0.895-13.057,1.184-33.409,0-45.917
		c-0.41-4.396-2.944-7.875-7.543-8.197c-0.039-2.121,0.559-3.602,0.66-5.578c5.578-0.687,13.96-2.748,19.026-3.613
		c1.478-0.248,2.169,1.29,3.276,1.97C632.85,131.508,632.85,135.122,632.85,138.72z"/>
	<path fill-rule="evenodd" fill="#00A9B4" d="M465.912,126.921c22.601-2.611,34.765,10.215,34.765,31.487
		c0,12.313-4.51,23.461-13.123,28.526c-15.659,9.213-36.202,1.808-42.304-9.842c-5.484-10.461-4.018-29.702,0-37.048
		C448.857,133.433,455.617,128.103,465.912,126.921z M462.96,135.768c-6.763,8.206-7.976,39.18,0.646,46.902
		c2.289,2.033,7.658,3.445,11.815,1.646c2.745-1.193,5.905-5.245,7.215-9.513c4.351-14.227,3.38-46.426-14.43-42.306
		C465.799,133.057,464.069,134.43,462.96,135.768z"/>
	<path fill-rule="evenodd" fill="#00A9B4" d="M569.223,126.921c14.929-1.603,26.106,4.108,30.833,13.436
		c5.238,10.373,4.982,23.453,1.31,33.458c-5.521,15.016-26.579,22.51-43.295,13.12c-9.572-5.378-14.58-17.621-13.447-33.127
		C545.723,138.643,554.213,128.524,569.223,126.921z M569.878,184.646c2.127,0.806,6.353,0.812,8.855-0.33
		c7.013-3.215,8.851-14.848,8.851-25.907c0-13.761-2.994-29.096-16.394-25.913C556.761,135.913,557.502,179.944,569.878,184.646z"/>
	<path fill-rule="evenodd" fill="#FFFFFF" d="M468.207,132.496c17.81-4.12,18.78,28.079,14.43,42.306
		c-1.31,4.269-4.47,8.32-7.215,9.513c-4.157,1.799-9.526,0.387-11.815-1.646c-8.622-7.722-7.409-38.696-0.646-46.902
		C464.069,134.43,465.799,133.057,468.207,132.496z M460.331,157.415c-0.261,11.944,1.948,28.37,13.45,24.603
		c10.895-3.573,12.241-49.945-4.259-46.896C462.313,136.445,460.543,147.854,460.331,157.415z"/>
	<path fill-rule="evenodd" fill="#FFFFFF" d="M571.19,132.496c13.399-3.184,16.394,12.152,16.394,25.913
		c0,11.059-1.838,22.692-8.851,25.907c-2.503,1.142-6.729,1.136-8.855,0.33C557.502,179.944,556.761,135.913,571.19,132.496z
		 M575.459,182.342c12.807-1.887,13.754-50.594-2.953-47.22C559.992,137.638,559.267,184.742,575.459,182.342z"/>
	<path fill-rule="evenodd" fill="#00529B" stroke="#00529B" stroke-width="0.1453" d="M469.522,135.122
		c16.5-3.05,15.153,43.323,4.259,46.896c-11.502,3.768-13.711-12.658-13.45-24.603C460.543,147.854,462.313,136.445,469.522,135.122
		z M463.284,159.058c0.1,8.359,1.153,19.46,6.561,20.337c12.587,2.033,11.961-44.417,0-41.327
		C464.472,139.46,463.196,150.998,463.284,159.058z"/>
	<path fill-rule="evenodd" fill="#00529B" stroke="#00529B" stroke-width="0.1453" d="M572.506,135.122
		c16.707-3.374,15.76,45.333,2.953,47.22C559.267,184.742,559.992,137.638,572.506,135.122z M573.804,179.395
		c11.475,0.223,10.846-44.487-0.974-41.327C563.478,140.576,564.215,179.202,573.804,179.395z"/>
	<path fill-rule="evenodd" fill="#FFFFFF" d="M469.845,138.068c11.961-3.089,12.587,43.36,0,41.327
		c-5.407-0.877-6.461-11.978-6.561-20.337C463.196,150.998,464.472,139.46,469.845,138.068z"/>
	<path fill-rule="evenodd" fill="#FFFFFF" d="M572.83,138.068c11.819-3.16,12.448,41.55,0.974,41.327
		C564.215,179.202,563.478,140.576,572.83,138.068z"/>
	<path fill-rule="evenodd" fill="#EC1C24" d="M704.016,16.72c-1.15,6.053-2.944,11.48-3.929,17.705
		c-57.838-9.852-95.003,20.973-109.22,61.995c-5.896-1.654-11.71-3.374-17.712-4.92c13.563-40.948,48.313-74.79,98.394-77.737
		C683.676,13.056,694.261,14.394,704.016,16.72z"/>
	<path fill-rule="evenodd" fill="#FFDD00" d="M758.139,141.675c-6.566-1.087-12.472-2.844-19.028-3.935
		c5.238-22.925-1.894-42.97-12.788-56.412c-10.739-13.245-26.836-23.552-49.201-23.608c-32.638-0.091-53.066,20.938-61.332,46.241
		c-5.638-1.905-11.135-3.949-17.052-5.581c10.537-32.079,35.977-57.608,75.107-59.686c38.67-2.056,66.951,21.24,79.371,48.208
		C760.145,101.957,762.188,122.326,758.139,141.675z"/>
	<path fill-rule="evenodd" fill="#00529B" d="M663.023,176.112c1.47-6.398,2.831-12.917,4.263-19.347
		c24.492,6.492,46.14-10.238,48.207-31.487c2.41-24.662-15.842-41.529-36.069-42.309c-19.304-0.735-31.648,10.811-37.398,26.892
		c-6.738-1.241-12.345-3.602-19.018-4.915c7.843-22.769,23.708-39.741,51.49-41.651c17.784-1.236,31.886,5.583,41.651,14.757
		c11.668,10.938,20.549,24.873,19.021,47.554c-1.194,17.906-10.654,31.479-22.628,40.675
		C700.596,175.452,682.73,181.235,663.023,176.112z"/>
</g>
</svg>
