<svg xmlns="http://www.w3.org/2000/svg" xmlns:xlink="http://www.w3.org/1999/xlink" width="900" zoomAndPan="magnify" viewBox="0 0 675 487.499991" height="650" preserveAspectRatio="xMidYMid meet" version="1.0"><defs><filter x="0%" y="0%" width="100%" height="100%" id="27970ed693"><feColorMatrix values="0 0 0 0 1 0 0 0 0 1 0 0 0 0 1 0 0 0 1 0" color-interpolation-filters="sRGB"/></filter><clipPath id="0968a7cc34"><path d="M 0.347656 0 L 674.652344 0 L 674.652344 487 L 0.347656 487 Z M 0.347656 0 " clip-rule="nonzero"/></clipPath><mask id="50195293de"><g filter="url(#27970ed693)"><rect x="-67.5" width="810" fill="#000000" y="-48.749999" height="584.999989" fill-opacity="0.15"/></g></mask><clipPath id="95738a2c0c"><path d="M 2 4 L 671 4 L 671 484 L 2 484 Z M 2 4 " clip-rule="nonzero"/></clipPath><clipPath id="c0fa984d09"><path d="M 716.910156 411.859375 L 27.003906 514.738281 L -41.179688 57.519531 L 648.726562 -45.359375 Z M 716.910156 411.859375 " clip-rule="nonzero"/></clipPath><clipPath id="7fa26b8e9c"><path d="M 716.910156 411.859375 L 27.003906 514.738281 L -41.179688 57.519531 L 648.726562 -45.359375 Z M 716.910156 411.859375 " clip-rule="nonzero"/></clipPath><clipPath id="b28ab1ab98"><rect x="0" width="675" y="0" height="487"/></clipPath></defs><g clip-path="url(#0968a7cc34)"><g mask="url(#50195293de)"><g transform="matrix(1, 0, 0, 1, 0.000000000000000056, 0)"><g clip-path="url(#b28ab1ab98)"><g clip-path="url(#95738a2c0c)"><g clip-path="url(#c0fa984d09)"><g clip-path="url(#7fa26b8e9c)"><path fill="#00abb5" d="M 552.074219 235.074219 C 539.785156 237.058594 527.335938 237.992188 514.878906 237.855469 C 495.683594 237.800781 476.609375 240.644531 458.242188 246.148438 C 441.375 251.425781 425.832031 259.425781 410.75 268.433594 C 399.753906 274.988281 393.417969 284.992188 389.945312 296.71875 C 385.570312 311.65625 381.820312 326.648438 378.242188 341.773438 C 374.914062 355.476562 372.851562 369.449219 367.585938 382.519531 C 360.507812 400.929688 348.816406 417.261719 333.671875 429.960938 C 322.457031 439.160156 311.585938 448.613281 300.390625 457.960938 C 292.335938 464.691406 282.871094 469.171875 273.125 472.777344 C 249.257812 481.558594 224.929688 485.183594 199.417969 481.925781 C 169.375 478.113281 139.726562 471.785156 110.617188 462.917969 C 89.058594 456.304688 69.984375 444.714844 51.886719 431.441406 C 41.921875 424.328125 32.851562 416.003906 24.996094 406.582031 C 16.191406 395.914062 9.867188 383.34375 6.925781 369.808594 C 3.679688 355.242188 1.054688 340.738281 3.28125 325.816406 C 7.546875 296.769531 19.976562 272.035156 44.289062 254.894531 C 53.4375 248.308594 63.886719 243.21875 74.226562 238.453125 C 97.050781 227.832031 117.964844 213.65625 136.261719 196.339844 C 150.140625 183.367188 160.863281 167.792969 171.222656 151.8125 C 182.433594 134.324219 193.144531 116.601562 205.214844 99.75 C 222.632812 75.5 242.3125 53.0625 266.164062 34.917969 C 279.824219 24.585938 294.132812 15.542969 310.375 10.203125 C 338.621094 0.921875 366.242188 1.871094 392.445312 17.007812 C 407.207031 25.402344 421.457031 34.488281 435.941406 43.078125 C 448.9375 50.96875 461.914062 58.707031 476.566406 63.28125 C 493.046875 68.808594 510.707031 69.859375 527.714844 66.554688 C 540.515625 63.878906 553.230469 60.601562 565.839844 57.644531 C 579.949219 54.464844 594.214844 52.339844 608.800781 53.386719 C 634.6875 55.058594 652.078125 68.742188 662.722656 91.726562 C 672.324219 112.867188 672.371094 134.820312 667.226562 156.933594 C 664.695312 167.753906 660.398438 178.070312 654.574219 187.386719 C 646.492188 200.109375 634.839844 208.449219 621.546875 215.039062 C 606.820312 222.300781 591.191406 226.628906 575.277344 230.078125 Z M 552.074219 235.074219 " fill-opacity="1" fill-rule="nonzero"/></g></g></g></g></g></g></g></svg>