<?xml version="1.0" encoding="utf-8"?>
<!-- Generator: Adobe Illustrator 18.0.0, SVG Export Plug-In . SVG Version: 6.00 Build 0)  -->
<!DOCTYPE svg PUBLIC "-//W3C//DTD SVG 1.1//EN" "http://www.w3.org/Graphics/SVG/1.1/DTD/svg11.dtd">
<svg version="1.1" xmlns="http://www.w3.org/2000/svg" xmlns:xlink="http://www.w3.org/1999/xlink" x="0px" y="0px"
	 viewBox="0 0 375.7 353" enable-background="new 0 0 375.7 353" xml:space="preserve">
<g id="BACKGROUND" display="none">
	<rect display="inline" fill="#2F1144" width="500" height="500"/>
</g>
<g id="OBJECTS">
	<path fill="#00529C" d="M185.3,310.9c-1.7-0.4-112,14.7-105.8-82.7c6.2-97.4-45.8-93.6-33.6-155.6c12.2-62,107.9-80.2,175.9-33
		c68,47.2,103.9,114.9,103.9,114.9s32.2,37.1,19.7,94.2C333.1,305.9,245,317.6,245,317.6L185.3,310.9z"/>
	<path fill="#00ABB5" d="M143.3,337.2c0,0-80.8-25.9-36-109.5c38.5-71.8-32.8-82.7-39.7-129C54,9.3,204.1-2.7,287.9,84.8
		C381.7,182.7,315.6,390.5,143.3,337.2z"/>
	<path fill="#00529C" d="M76.5,326.5c0,0-17.2,3.2-20.7-9.8c-3.5-13,8.6-18.8,18.4-19c9.8-0.2,16.7,6.2,16.3,14.9
		C90.2,321.3,81.6,325.6,76.5,326.5z"/>
	<path fill="#00529C" d="M342.1,110.3c0,0-13.7,2.5-16.4-7.8c-2.8-10.3,6.8-15,14.7-15.2c7.8-0.2,13.3,4.9,13,11.9
		C352.9,106.1,346.1,109.5,342.1,110.3z"/>
	<path fill="#00ABB5" d="M41.4,286.4c0,0-7.2-6.3-0.9-11.9c6.3-5.6,13.5-2.3,16.7,1.8c3.2,4.1,1.7,9-3.4,11.6
		C48.7,290.6,43.5,288.3,41.4,286.4z"/>
	<path fill="#00529C" d="M50.2,21.7c0,0-7.2-6.3-0.9-11.9c6.3-5.6,13.5-2.3,16.7,1.8c3.2,4.1,1.7,9-3.4,11.6
		C57.5,25.9,52.4,23.6,50.2,21.7z"/>
	<path fill="#00ABB5" d="M335.8,139.9c0,0-5.5-4.8-0.7-9c4.8-4.2,10.2-1.7,12.6,1.4c2.4,3.1,1.3,6.8-2.6,8.8
		C341.3,143,337.4,141.3,335.8,139.9z"/>
	<path fill="#00ABB5" d="M364.2,124c0,0-4.2-3.6-0.5-6.8c3.6-3.2,7.8-1.3,9.6,1s1,5.2-2,6.7C368.4,126.4,365.5,125.1,364.2,124z"/>
	<path fill="#00ABB5" d="M7.8,62.4c0,0,0.6-31.9,25.4-35.5c13.4-2-1.1,18.3-3.2,42.1c-2.2,23.8,0.5,31-6.8,28.6
		C15.9,95.2,7.4,79.2,7.8,62.4z"/>
	<g>
		<path fill="#00529C" d="M368.8,707.3c0,0-33,34.8,1.4,93.9c32.1,55.2-6.4,71.2,18.4,106c24.8,34.8,154.2-3.2,143.6-85.3
			c-10.6-82.1-60-88.2-60.5-129.3C471.2,651.5,406.6,665.6,368.8,707.3z"/>
		<path fill="#00ABB5" d="M467.4,933.3c0,0,13.6-0.3,15-8.9c0.8-4.6-7.8,0.4-17.9,1.3c-10.1,0.8-13.2-0.1-12.1,2.4
			C453.4,930.6,460.2,933.5,467.4,933.3z"/>
		<path fill="#00529C" d="M509.1,698.7c0,0-7.7-18.7-21.9-16.2c-7.7,1.3,4.8,10.6,11.5,24.2c6.7,13.6,6.9,18.4,10.3,15.6
			C512.3,719.5,513.2,708.5,509.1,698.7z"/>
		<path fill="#00ABB5" d="M532.9,868.5c0,0,26.7-36.4-16.5-81.7c-40.4-42.3-5.2-63.3-35.1-89.1c-29.9-25.8-150.5,31.2-126.9,100.9
			c23.6,69.8,73,65.9,80.1,101.7C441.6,936.1,502.6,911.9,532.9,868.5z"/>
		<path fill="#00ABB5" d="M484.8,676.4c0,0,5.9-4.3,2-9.3c-4-5-9.5-3-12.3-0.1c-2.8,2.9-2.3,7,1.2,9.5
			C479,679,483,677.6,484.8,676.4z"/>
		<path fill="#00ABB5" d="M507,673.5c0,0-0.4-3.9-4-3.7c-3.7,0.2-4.4,3.3-3.7,5.4c0.6,2.1,2.8,3.1,5.1,2.3
			C506.5,676.8,507.1,674.6,507,673.5z"/>
		<path fill="#00529C" d="M355.7,844.1c0,0,5.9-4.3,2-9.3c-4-5-9.5-3-12.3-0.1c-2.8,2.9-2.3,7,1.2,9.5
			C350,846.7,354,845.3,355.7,844.1z"/>
		<path fill="#00ABB5" d="M375.4,848c0,0-0.4-3.9-4-3.7c-3.7,0.2-4.4,3.3-3.7,5.4c0.6,2.1,2.8,3.1,5.1,2.3
			C374.9,851.3,375.5,849.2,375.4,848z"/>
		<path fill="#00ABB5" d="M359.1,863.4c0,0-0.4-3.9-4-3.7c-3.7,0.2-4.4,3.3-3.7,5.4c0.6,2.1,2.8,3.1,5.1,2.3
			C358.7,866.7,359.2,864.6,359.1,863.4z"/>
	</g>
	<g>
		<path fill="#00ABB5" d="M635.7,141.6c0,0-52.4,102.6,32.4,203.5c57.5,68.5,238.3,161,328.9,22.1
			c61.7-94.6-120.4-140.3-116.4-295.9C882.5-4.9,701.4-3.3,635.7,141.6z"/>
		<g>
			<path fill="#00ABB5" d="M988.3,275.7c-15.5-21.1-37-42.7-56.7-67.9C950.5,233.2,971.8,254.9,988.3,275.7z"/>
			<path fill="#00ABB5" d="M635.7,141.6c0,0-50.8,99.6,28.8,199.1c-70.9-96.7-22.7-191.1-22.7-191.1
				C697.1,27.5,834.4,7.1,875.1,49.2C844.5-2.9,694.2,12.4,635.7,141.6z"/>
		</g>
		<path fill="#00ABB5" d="M525.4,237.5c0,0,11.3-11.5,22-2c10.7,9.4,4.9,20.6-2.5,25.8c-7.5,5.2-16.7,3.1-21.8-4.6
			C518.1,249,522.1,240.9,525.4,237.5z"/>
		<path fill="#00ABB5" d="M589.4,242.6c0,0,4.2,7.8-2.9,11.5c-7.1,3.7-12.2-1.3-13.6-6c-1.5-4.7,1.4-9,6.5-10.2
			C584.5,236.8,588.1,240.3,589.4,242.6z"/>
		<path fill="#00ABB5" d="M561.5,172.8c0,0,14.6,35.6,6.3,45.4c-8.3,9.8-23.1-7.9-31.3-23.8c-8.2-15.9-9.8-34.7-2.1-36.9
			C542.2,155.4,555.3,156.8,561.5,172.8z"/>
		<path fill="#00ABB5" d="M761.2,485.4c0,0-34.7-30-18.2-56.1c8.9-14.1,19.4,17.9,43.9,41.9c24.5,24,34.7,28.2,26,32.6
			C804.1,508.4,779.4,501.3,761.2,485.4z"/>
		<path fill="#00ABB5" d="M946.4,68.4c0,0,11.3-11.5,22-2c10.7,9.4,4.9,20.6-2.5,25.8c-7.5,5.2-16.7,3.1-21.8-4.6
			C939,79.9,943.1,71.8,946.4,68.4z"/>
		<path fill="#00ABB5" d="M934.9,23.2c0,0,9,1.7,7.6,9.3c-1.4,7.6-8.6,8.4-13.3,6.6c-4.8-1.8-6.5-6.6-4.3-11.2
			C927.2,23.4,932.3,22.8,934.9,23.2z"/>
		<path fill="#00ABB5" d="M908.7,45.2c0,0,16,14,16.4,20.4c0.4,6.3-11.3,4.6-20,1.4c-8.6-3.2-13-9.1-13.8-13
			C890.3,49.5,897.2,36,908.7,45.2z"/>
	</g>
	<g>
		
			<linearGradient id="SVGID_1_" gradientUnits="userSpaceOnUse" x1="350.6288" y1="139.0144" x2="531.2829" y2="139.0144" gradientTransform="matrix(-1 0 0 -1 283.8669 279.4228)">
			<stop  offset="0" style="stop-color:#47D6CA"/>
			<stop  offset="1" style="stop-color:#5049E1"/>
		</linearGradient>
		<path opacity="0.26" fill="url(#SVGID_1_)" d="M-234.3,142.8c1.1,7.3,3.5,14.7,7.3,21.6c-5.4,21.4,4.3,41.4,26.4,46.1
			c30.9,6.5,30.7-10.6,79.4-6c48.8,4.6,43.1-43.3,43.3-44.1l0.1-0.8c2.3-3.8,3.3-6.3,3.3-6.3c24.4-57.9-14.5-96.7-47-80.7
			c-0.1,0-0.1,0.1-0.2,0.1c-7.8,2.6-23.6,6-45.4,1.2c-31.6-6.9-60.3-3.3-74.1,19C-253.2,112-246.2,132.2-234.3,142.8z"/>
		<linearGradient id="SVGID_2_" gradientUnits="userSpaceOnUse" x1="-197.8768" y1="166.0372" x2="-66.7605" y2="166.0372">
			<stop  offset="0" style="stop-color:#905AE3"/>
			<stop  offset="1" style="stop-color:#4531B7"/>
		</linearGradient>
		<path fill="url(#SVGID_2_)" d="M-197.9,204.7c0,0,19.1-10.3,50.8-3.4c31.6,6.9,60.3,3.3,74.1-19C-59.1,160-70.7,136.4-86,128
			C-101.3,119.6-197.9,204.7-197.9,204.7z"/>
		<linearGradient id="SVGID_3_" gradientUnits="userSpaceOnUse" x1="-240.6468" y1="125.1197" x2="-85.7222" y2="125.1197">
			<stop  offset="0" style="stop-color:#905AE3"/>
			<stop  offset="1" style="stop-color:#4531B7"/>
		</linearGradient>
		<path fill="url(#SVGID_3_)" d="M-236.3,114.8c0.2-0.7-5.5-48.7,43.3-44.1c48.8,4.6,48.5-12.5,79.4-6c30.9,6.5,37.6,42.8,12.8,71.2
			c-24.8,28.5-59.4,42.6-59.4,42.6s-19.2,13.2-47.6,6.7s-32.8-44.8-32.8-44.8L-236.3,114.8z"/>
		<linearGradient id="SVGID_4_" gradientUnits="userSpaceOnUse" x1="-247.416" y1="140.4084" x2="-79.2416" y2="140.4084">
			<stop  offset="0" style="stop-color:#47D6CA"/>
			<stop  offset="1" style="stop-color:#5049E1"/>
		</linearGradient>
		<path fill="url(#SVGID_4_)" d="M-239.8,121.9c0,0,20.8-52,92.2-47c71.4,5,85,83.2,49.3,102.8c-35.7,19.7-61.9,8.8-94.5,24.9
			C-225.3,218.7-264.2,179.8-239.8,121.9z"/>
		<linearGradient id="SVGID_5_" gradientUnits="userSpaceOnUse" x1="-247.416" y1="140.4084" x2="-79.2416" y2="140.4084">
			<stop  offset="0" style="stop-color:#47D6CA"/>
			<stop  offset="1" style="stop-color:#5049E1"/>
		</linearGradient>
		<path fill="url(#SVGID_5_)" d="M-239.8,121.9c0,0,20.8-52,92.2-47c71.4,5,85,83.2,49.3,102.8c-35.7,19.7-61.9,8.8-94.5,24.9
			C-225.3,218.7-264.2,179.8-239.8,121.9z"/>
		<path fill="#7D7DF4" d="M-138.4,76c60.3,12.7,70.2,82.6,36.7,101.1c-35.7,19.7-61.9,8.8-94.5,24.9c-6.5,3.2-13.2,4.2-19.6,3.3
			c7.5,1.8,15.5,1.1,23.1-2.7c32.5-16,58.8-5.2,94.5-24.9C-64.1,158.9-75,86.7-138.4,76z"/>
		<g>
			
				<linearGradient id="SVGID_6_" gradientUnits="userSpaceOnUse" x1="-119.3353" y1="202.3136" x2="-111.7201" y2="213.6166" gradientTransform="matrix(0.8587 0.5125 -0.5125 0.8587 46.2796 -57.1187)">
				<stop  offset="0" style="stop-color:#47D6CA"/>
				<stop  offset="1" style="stop-color:#5049E1"/>
			</linearGradient>
			<path fill="url(#SVGID_6_)" d="M-165,59.9c0,0,2.2-5.6,7.2-3.8c5,1.8,4.7,6.6,2.9,9.5c-1.8,2.9-5.2,3.5-8.1,1.4
				C-165.8,64.9-165.6,61.5-165,59.9z"/>
			
				<linearGradient id="SVGID_7_" gradientUnits="userSpaceOnUse" x1="61.298" y1="335.6335" x2="65.5349" y2="341.9222" gradientTransform="matrix(3.190000e-002 0.9995 -0.9995 3.190000e-002 161.1483 -21.4423)">
				<stop  offset="0" style="stop-color:#905AE3"/>
				<stop  offset="1" style="stop-color:#4531B7"/>
			</linearGradient>
			<path fill="url(#SVGID_7_)" d="M-176,49.5c0,0,3.3-0.7,3.9,2.2c0.6,2.9-1.7,4.2-3.6,4.2c-1.9,0-3.2-1.4-3.1-3.3
				C-178.6,50.6-176.9,49.7-176,49.5z"/>
			
				<linearGradient id="SVGID_8_" gradientUnits="userSpaceOnUse" x1="73.6304" y1="165.9375" x2="76.9331" y2="170.8396" gradientTransform="matrix(3.190000e-002 0.9995 -2.3757 7.590000e-002 216.0169 -22.835)">
				<stop  offset="0" style="stop-color:#905AE3"/>
				<stop  offset="1" style="stop-color:#4531B7"/>
			</linearGradient>
			<path fill="url(#SVGID_8_)" d="M-181.6,60.9c0,0,7.5,2.7,8.5,4.9c1.1,2.2-3.2,3.2-6.6,3.3c-3.4,0.1-5.7-1.4-6.6-2.6
				C-187.3,65-186.9,59.3-181.6,60.9z"/>
		</g>
		
			<linearGradient id="SVGID_9_" gradientUnits="userSpaceOnUse" x1="-202.3606" y1="128.814" x2="-193.1664" y2="142.4607" gradientTransform="matrix(0.9999 -1.430000e-002 5.420000e-002 3.7966 -69.3552 -355.9663)">
			<stop  offset="0" style="stop-color:#47D6CA"/>
			<stop  offset="1" style="stop-color:#5049E1"/>
		</linearGradient>
		<path fill="url(#SVGID_9_)" d="M-269.1,161.7c0,0-4.5-19.9,11.6-24.9c6-1.9,0.4,9.9,0.5,22.7c0.1,12.8,4.8,23.8,1.3,22.8
			C-259.2,181.3-268.5,170.7-269.1,161.7z"/>
		<g>
			<text transform="matrix(1 0 0 1 -202.3351 130.222)" fill="#FFFFFF" font-family="'Roboto-Bold'" font-size="14.1744">Lorem Ipsum</text>
			<rect x="-202.3" y="136.5" fill="none" width="74" height="23.9"/>
			<text transform="matrix(1 0 0 1 -202.3312 139.7127)"><tspan x="0" y="0" fill="#FFFFFF" font-family="'Lato-Regular'" font-size="4.3545">Lorem ipsum dolor sit amet, </tspan><tspan x="0" y="6" fill="#FFFFFF" font-family="'Lato-Regular'" font-size="4.3545">consectetur adipiscing elit. Sed </tspan><tspan x="0" y="11.9" fill="#FFFFFF" font-family="'Lato-Regular'" font-size="4.3545">posuere, ex nec gravida viverra, ante </tspan></text>
		</g>
		
			<linearGradient id="SVGID_10_" gradientUnits="userSpaceOnUse" x1="225.8426" y1="287.9651" x2="230.0795" y2="294.2538" gradientTransform="matrix(3.190000e-002 0.9995 -0.9995 3.190000e-002 161.1483 -21.4423)">
			<stop  offset="0" style="stop-color:#905AE3"/>
			<stop  offset="1" style="stop-color:#4531B7"/>
		</linearGradient>
		<path fill="url(#SVGID_10_)" d="M-123.1,212.4c0,0,3.3-0.7,3.9,2.2c0.6,2.9-1.7,4.2-3.6,4.2c-1.9,0-3.2-1.4-3.1-3.3
			C-125.7,213.6-124,212.6-123.1,212.4z"/>
		
			<linearGradient id="SVGID_11_" gradientUnits="userSpaceOnUse" x1="223.9524" y1="150.2869" x2="230.5808" y2="160.1252" gradientTransform="matrix(3.190000e-002 0.9995 -2.3757 7.590000e-002 216.0169 -22.835)">
			<stop  offset="0" style="stop-color:#905AE3"/>
			<stop  offset="1" style="stop-color:#4531B7"/>
		</linearGradient>
		<path fill="url(#SVGID_11_)" d="M-147.6,210.1c0,0,14.6,0.8,16.7,5.2c2.1,4.3-6.3,6.4-13.1,6.6c-6.8,0.2-13.6-2.3-13.1-5.2
			S-154.1,209.5-147.6,210.1z"/>
	</g>
</g>
<g id="DESIGNED_BY_FREEPIK">
</g>
</svg>
