<?xml version="1.0" encoding="utf-8"?>
<!-- Generator: Adobe Illustrator 16.0.0, SVG Export Plug-In . SVG Version: 6.00 Build 0)  -->
<!DOCTYPE svg PUBLIC "-//W3C//DTD SVG 1.1//EN" "http://www.w3.org/Graphics/SVG/1.1/DTD/svg11.dtd">
<svg version="1.1" xmlns="http://www.w3.org/2000/svg" xmlns:xlink="http://www.w3.org/1999/xlink" x="0px" y="0px" width="500px"
	 height="320.126px" viewBox="0 0 500 320.126" enable-background="new 0 0 500 320.126" xml:space="preserve">
<g id="BACKGROUND">
</g>
<g id="OBJECTS">
	<g>
		
			<linearGradient id="SVGID_1_" gradientUnits="userSpaceOnUse" x1="218.2637" y1="2.7939" x2="218.2637" y2="324.3728" gradientTransform="matrix(-1 0 0 -1 501.418 320.6689)">
			<stop  offset="0" style="stop-color:#1DB4E0"/>
			<stop  offset="0.2066" style="stop-color:#1AADDD"/>
			<stop  offset="0.5041" style="stop-color:#139AD3"/>
			<stop  offset="0.8551" style="stop-color:#067BC3"/>
			<stop  offset="1" style="stop-color:#006CBC"/>
		</linearGradient>
		<path fill="url(#SVGID_1_)" d="M82.136,62.78c6.367-11.759,15.027-21.691,25.188-29.854
			c22.463-18.036,52.347-27.392,81.292-28.468c42.055-1.598,83.169,11.281,123.573,23.367c40.4,12.089,82.136,23.637,124.002,19.288
			c20.85-2.156,54.865-6.813,59.26,22.635c3.776,25.254-2.571,49.296-15.232,70.969c-1.577,2.714-3.212,5.408-4.863,8.084
			c-6.481,10.433-13.506,20.499-21.019,30.181v0.019c-18.257,23.522-39.407,44.675-62.697,62.961
			c-16.078,12.627-33.17,23.888-51.053,33.607c-10.367,5.643-21.28,11.224-32.512,16.247
			c-46.713,20.864-99.079,32.145-142.412-1.443c-16.002-12.435-29.076-28.334-41.133-44.849c-1.391-1.887-2.763-3.792-4.115-5.698
			c-18.445-25.812-35.669-53.182-44.61-83.847C66.866,125.338,66.998,90.749,82.136,62.78z"/>
		<path opacity="0.3" fill="#1184B4" d="M371.824,225.583c0.92-3.272,4.113-5.235,7.024-6.873
			c8.226-4.637,16.453-9.258,24.699-13.877c11.307-6.352,22.596-12.703,34.128-18.632c5.392-2.751,10.895-5.447,16.661-7.199
			c-18.257,23.522-39.407,44.675-62.697,62.961c-3.344-1.059-6.648-2.271-9.88-3.656
			C376.369,236.015,370.208,231.32,371.824,225.583z"/>
		<path opacity="0.3" fill="#1184B4" d="M82.136,62.78c6.367-11.759,15.027-21.691,25.188-29.854
			c28.042-5.852,57.982-2.696,84.522,8.584c17.375,7.392,33.96,18.69,43.332,35.397c9.392,16.708,9.936,39.557-2.311,54.203
			c-16.435,19.692-47.821,18.132-66.567,35.513c-21.92,20.307-19.534,59.498-41.771,78.9c-1.391-1.887-2.763-3.792-4.115-5.698
			c-18.445-25.812-35.669-53.182-44.61-83.847C66.866,125.338,66.998,90.749,82.136,62.78z"/>
		
			<linearGradient id="SVGID_2_" gradientUnits="userSpaceOnUse" x1="69.0889" y1="57.7559" x2="69.0889" y2="140.0858" gradientTransform="matrix(-1 0 0 -1 501.418 320.6689)">
			<stop  offset="0" style="stop-color:#1DB4E0"/>
			<stop  offset="0.2066" style="stop-color:#1AADDD"/>
			<stop  offset="0.5041" style="stop-color:#139AD3"/>
			<stop  offset="0.8551" style="stop-color:#067BC3"/>
			<stop  offset="1" style="stop-color:#006CBC"/>
		</linearGradient>
		<path fill="url(#SVGID_2_)" d="M484.045,195.101c-6.46-5.176-15.29-6.413-23.389-5.09c-8.099,1.325-15.646,4.949-22.981,8.71
			c-11.526,5.911-22.829,12.263-34.131,18.614c-8.233,4.628-16.47,9.256-24.702,13.884c-2.916,1.637-6.089,3.596-7.012,6.868
			c-1.614,5.739,4.545,10.444,9.928,12.733c22.006,9.361,46.893,11.454,70.09,5.89c13.867-3.323,27.81-9.9,35.763-22.004
			C495.567,222.605,495.26,204.092,484.045,195.101z"/>
		
			<linearGradient id="SVGID_3_" gradientUnits="userSpaceOnUse" x1="376.4429" y1="56.4731" x2="376.4429" y2="287.5111" gradientTransform="matrix(-1 0 0 -1 501.418 320.6689)">
			<stop  offset="0" style="stop-color:#1DB4E0"/>
			<stop  offset="0.2066" style="stop-color:#1AADDD"/>
			<stop  offset="0.5041" style="stop-color:#139AD3"/>
			<stop  offset="0.8551" style="stop-color:#067BC3"/>
			<stop  offset="1" style="stop-color:#006CBC"/>
		</linearGradient>
		<path fill="url(#SVGID_3_)" d="M191.842,54.021c-37.458-15.942-81.764-15.649-117.854,3.319
			c-36.09,18.967-62.65,57.039-65.868,98.473c-3.217,41.434,18.298,84.501,54.224,103.795c18.877,10.138,43.594,13.089,60.519-0.186
			c24.043-18.863,20.979-59.475,43.435-80.288c18.759-17.386,50.133-15.826,66.577-35.518c12.232-14.648,11.695-37.487,2.311-54.198
			C225.803,72.709,209.217,61.416,191.842,54.021z"/>
	</g>
	<g>
		<linearGradient id="SVGID_4_" gradientUnits="userSpaceOnUse" x1="-262.8315" y1="207.8037" x2="-262.8315" y2="494.4464">
			<stop  offset="0" style="stop-color:#F0648C"/>
			<stop  offset="0.2105" style="stop-color:#F05D8A"/>
			<stop  offset="0.5137" style="stop-color:#EF4A85"/>
			<stop  offset="0.8714" style="stop-color:#EE2B7D"/>
			<stop  offset="1" style="stop-color:#ED1E79"/>
		</linearGradient>
		<path fill="url(#SVGID_4_)" d="M-63.59,401.435c-2.993,5.711-6.363,11.229-10.051,16.519
			c-14.306,20.458-33.457,37.504-55.096,49.828c-0.758,0.442-1.517,0.865-2.297,1.285c-37.882,20.88-82.38,28.17-125.593,25.705
			c-22.228-1.242-48.164-5.015-74.416-11.799c-0.443-0.106-0.864-0.231-1.307-0.339c-64.682-16.938-130.901-52.187-147.778-113.161
			c-0.948-3.453-1.749-7.016-2.36-10.639c-0.547-3.035-0.948-6.131-1.243-9.271c-5.225-57.687,18.077-112.15,71.318-139.077
			c34.09-17.256,74.501-20.29,111.667-11.44c32.003,7.627,61.606,23.724,86.867,44.624c24.356,20.143,50.208,30.466,82.422,33.668
			c33.563,3.33,72.835-2.106,86.786,36.914c1.138,3.16,1.98,6.468,2.548,9.881C-37.527,351.208-51.308,378.048-63.59,401.435z"/>
		<path opacity="0.3" fill="#B30E5C" d="M-73.641,417.954c-14.306,20.458-33.457,37.504-55.096,49.828
			c-0.758,0.442-1.517,0.865-2.297,1.285c-6.3-5.035-14.432-14.664-13.61-23.218c1.517-15.97,21.09-10.745,32.088-14.285
			c11.082-3.561,21.323-9.459,32.573-12.388C-77.917,418.627-75.79,418.228-73.641,417.954z"/>
		<path opacity="0.3" fill="#B30E5C" d="M-277.717,432.175c-12.22,19.869-31.161,37.545-53.325,50.798
			c-0.443-0.106-0.864-0.231-1.307-0.339c-64.682-16.938-130.901-52.187-147.778-113.161c-0.948-3.453-1.749-7.016-2.36-10.639
			c12.326-9.081,27.77-14.475,45.51-14.032c30.297,0.759,59.878,19.91,89.249,12.347c15.106-3.898,28.485-14.664,44.098-14.813
			c19.046-0.189,35.249,16.813,38.873,35.523C-261.115,396.568-267.73,415.953-277.717,432.175z"/>
		<linearGradient id="SVGID_5_" gradientUnits="userSpaceOnUse" x1="-96.5552" y1="405.1587" x2="-96.5552" y2="466.9603">
			<stop  offset="0" style="stop-color:#F0648C"/>
			<stop  offset="1" style="stop-color:#ED1E79"/>
		</linearGradient>
		<path fill="url(#SVGID_5_)" d="M-90.419,468.16c-15.343,1.065-31.479-1.776-43.823-10.952c-6.369-4.732-15.48-14.992-14.619-23.99
			c1.53-15.978,21.094-10.762,32.095-14.293c11.069-3.557,21.327-9.457,32.577-12.386c11.252-2.931,24.487-2.283,32.853,5.793
			c10.35,9.995,8.821,28.216-0.505,39.173S-76.066,467.162-90.419,468.16z"/>
		<linearGradient id="SVGID_6_" gradientUnits="userSpaceOnUse" x1="-393.3423" y1="329.5151" x2="-393.3423" y2="494.0698">
			<stop  offset="0" style="stop-color:#F0648C"/>
			<stop  offset="1" style="stop-color:#ED1E79"/>
		</linearGradient>
		<path fill="url(#SVGID_6_)" d="M-403.838,494.279c-34.658,4.022-69.122-4.384-94.169-31.084
			c-45.519-48.518-11.321-132.708,56.813-131.025c30.309,0.749,59.889,19.897,89.25,12.335
			c15.108-3.891,28.494-14.666,44.094-14.814c19.054-0.182,35.249,16.819,38.882,35.523c3.633,18.705-2.97,38.089-12.952,54.318
			C-305.713,458.215-354.969,488.605-403.838,494.279z"/>
	</g>
</g>
<g id="DESIGNED_BY_FREEPIK">
</g>
</svg>
