<?xml version="1.0" encoding="utf-8"?>
<!-- Generator: Adobe Illustrator 18.0.0, SVG Export Plug-In . SVG Version: 6.00 Build 0)  -->
<!DOCTYPE svg PUBLIC "-//W3C//DTD SVG 1.1//EN" "http://www.w3.org/Graphics/SVG/1.1/DTD/svg11.dtd">
<svg version="1.1" xmlns="http://www.w3.org/2000/svg" xmlns:xlink="http://www.w3.org/1999/xlink" x="0px" y="0px"
	 viewBox="0 0 375.7 500" enable-background="new 0 0 375.7 500" xml:space="preserve">
<g id="BACKGROUND" display="none">
	<rect display="inline" fill="#2F1144" width="500" height="500"/>
</g>
<g id="OBJECTS">
	<g>
		<g>
			
				<linearGradient id="SVGID_1_" gradientUnits="userSpaceOnUse" x1="409.4103" y1="-210.7249" x2="494.3383" y2="-84.6683" gradientTransform="matrix(-0.9998 -2.070000e-002 2.300000e-002 -1.1105 276.6406 384.1137)">
				<stop  offset="0" style="stop-color:#FDBB96"/>
				<stop  offset="1" style="stop-color:#FD4270"/>
			</linearGradient>
			<path opacity="0.26" fill="url(#SVGID_1_)" d="M-95.6,567.7c0,0-13.3,40.9-56.9,15c-37.5-22.2-45.4,14-70.5,16
				c-48.4,3.8-50.5-73.7-1.1-113.7C-168.8,440.1-62,480.9-95.6,567.7z"/>
			<linearGradient id="SVGID_2_" gradientUnits="userSpaceOnUse" x1="-207.2925" y1="472.1085" x2="-127.6113" y2="590.3774">
				<stop  offset="0" style="stop-color:#D32B8A"/>
				<stop  offset="1" style="stop-color:#A114C0"/>
			</linearGradient>
			<path fill="url(#SVGID_2_)" d="M-243.6,530c0.2-0.8-5.9-52.2,46.4-47.2c52.3,4.9,51.2-19.2,84.3-12.3c33.1,7,41.1,51.7,14.5,82.1
				c-26.6,30.5-63.7,45.7-63.7,45.7s-20.5,14.1-51,7.1c-30.5-7-35.1-48-35.1-48L-243.6,530z"/>
			<linearGradient id="SVGID_3_" gradientUnits="userSpaceOnUse" x1="-214.2618" y1="471.4105" x2="-128.8075" y2="598.2482">
				<stop  offset="0" style="stop-color:#FDBB96"/>
				<stop  offset="1" style="stop-color:#FD4270"/>
			</linearGradient>
			<path fill="url(#SVGID_3_)" d="M-257,510c0,0,15.4-36.9,59.5-14.4c37.9,19.3,45.1-13.4,70.1-15.7c48.3-4.4,52.1,65.4,3.5,102.3
				C-178.3,623.6-288.8,588.7-257,510z"/>
			<g>
				<path fill="#FDBB96" d="M-125,479.8c42.7,1.6,44.2,67.1-2.3,102.5c-15.3,11.6-35,17.2-54.7,17.5c20.9,0.3,42-5.2,58.1-17.5
					C-76.2,546-78.9,478-125,479.8z"/>
				<path fill="#FDBB96" d="M-200.9,495.6c9.4,4.8,16.9,6.4,23.2,6c-5.6-0.3-12.1-2.1-19.8-6c-11.1-5.7-20.4-7.6-28.1-7.2
					C-218.6,488.7-210.4,490.8-200.9,495.6z"/>
			</g>
			<g>
				<text transform="matrix(1 0 0 1 -215.2757 535.0974)" fill="#FFFFFF" font-family="'Roboto-Bold'" font-size="14.1744">Lorem Ipsum</text>
				<rect x="-215.3" y="541.4" fill="none" width="74" height="23.9"/>
				<text transform="matrix(1 0 0 1 -215.2718 544.5876)"><tspan x="0" y="0" fill="#FFFFFF" font-family="'Lato-Regular'" font-size="4.3545">Lorem ipsum dolor sit amet, </tspan><tspan x="0" y="6" fill="#FFFFFF" font-family="'Lato-Regular'" font-size="4.3545">consectetur adipiscing elit. Sed </tspan><tspan x="0" y="11.9" fill="#FFFFFF" font-family="'Lato-Regular'" font-size="4.3545">posuere, ex nec gravida viverra, ante </tspan></text>
			</g>
			<linearGradient id="SVGID_4_" gradientUnits="userSpaceOnUse" x1="-247.2164" y1="470.6933" x2="-236.961" y2="485.9151">
				<stop  offset="0" style="stop-color:#D32B8A"/>
				<stop  offset="1" style="stop-color:#A114C0"/>
			</linearGradient>
			<path fill="url(#SVGID_4_)" d="M-250.1,479.3c0,0-1.4-8,5.7-9.4c7-1.3,10,4.4,9.9,8.9c-0.1,4.6-3.6,7.6-8.3,7.2
				C-247.5,485.7-249.6,481.7-250.1,479.3z"/>
			<linearGradient id="SVGID_5_" gradientUnits="userSpaceOnUse" x1="-136.3443" y1="599.9969" x2="-128.1829" y2="612.1107">
				<stop  offset="0" style="stop-color:#D32B8A"/>
				<stop  offset="1" style="stop-color:#A114C0"/>
			</linearGradient>
			<path fill="url(#SVGID_5_)" d="M-138.6,606.8c0,0-1.1-6.4,4.5-7.4c5.6-1.1,7.9,3.5,7.9,7.1c0,3.6-2.9,6-6.6,5.8
				C-136.6,612-138.3,608.7-138.6,606.8z"/>
			
				<linearGradient id="SVGID_6_" gradientUnits="userSpaceOnUse" x1="229.1886" y1="551.1488" x2="235.1842" y2="560.048" gradientTransform="matrix(0.5397 0.8419 -0.8419 0.5397 117.6148 -27.8542)">
				<stop  offset="0" style="stop-color:#FDBB96"/>
				<stop  offset="1" style="stop-color:#FD4270"/>
			</linearGradient>
			<path fill="url(#SVGID_6_)" d="M-227.8,463.9c0,0,3.5-3.2,6.4-0.2c2.9,3,1,6.3-1.3,7.7c-2.3,1.4-4.9,0.6-6.2-1.8
				C-230.2,467.2-228.9,464.8-227.8,463.9z"/>
			
				<linearGradient id="SVGID_7_" gradientUnits="userSpaceOnUse" x1="314.0636" y1="436.7157" x2="320.0592" y2="445.6149" gradientTransform="matrix(0.5397 0.8419 -0.8419 0.5397 117.6148 -27.8542)">
				<stop  offset="0" style="stop-color:#FDBB96"/>
				<stop  offset="1" style="stop-color:#FD4270"/>
			</linearGradient>
			<path fill="url(#SVGID_7_)" d="M-85.7,473.6c0,0,3.5-3.2,6.4-0.2c2.9,3,1,6.3-1.3,7.7c-2.3,1.4-4.9,0.6-6.2-1.8
				C-88.1,476.9-86.7,474.5-85.7,473.6z"/>
			
				<linearGradient id="SVGID_8_" gradientUnits="userSpaceOnUse" x1="385.8039" y1="565.8222" x2="390.3445" y2="572.5618" gradientTransform="matrix(0.5397 0.8419 -0.8419 0.5397 117.6148 -27.8542)">
				<stop  offset="0" style="stop-color:#FDBB96"/>
				<stop  offset="1" style="stop-color:#FD4270"/>
			</linearGradient>
			<path fill="url(#SVGID_8_)" d="M-154.4,603.3c0,0,2.7-2.4,4.8-0.1c2.2,2.3,0.8,4.8-1,5.8c-1.7,1.1-3.7,0.5-4.7-1.4
				C-156.2,605.8-155.2,604.1-154.4,603.3z"/>
			
				<linearGradient id="SVGID_9_" gradientUnits="userSpaceOnUse" x1="401.1912" y1="567.2839" x2="404.644" y2="572.4088" gradientTransform="matrix(0.5397 0.8419 -0.8419 0.5397 117.6148 -27.8542)">
				<stop  offset="0" style="stop-color:#FDBB96"/>
				<stop  offset="1" style="stop-color:#FD4270"/>
			</linearGradient>
			<path fill="url(#SVGID_9_)" d="M-146.4,616.8c0,0,2-1.9,3.7-0.1c1.7,1.8,0.6,3.6-0.7,4.4s-2.8,0.3-3.6-1
				C-147.8,618.7-147,617.4-146.4,616.8z"/>
		</g>
		
			<linearGradient id="SVGID_10_" gradientUnits="userSpaceOnUse" x1="932.5728" y1="232.075" x2="939.4834" y2="242.3323" gradientTransform="matrix(-0.1144 0.9934 -3.7721 -0.4343 894.336 -365.819)">
			<stop  offset="0" style="stop-color:#FDBB96"/>
			<stop  offset="1" style="stop-color:#FD4270"/>
		</linearGradient>
		<path fill="url(#SVGID_10_)" d="M-106.8,453c0,0,17.1,1,18.6,12.5c0.8,6.3-9.8-0.9-22.6-2.4c-12.8-1.5-16.7-0.4-15.3-3.7
			C-124.6,456.1-115.8,452.5-106.8,453z"/>
	</g>
	<g>
		<path fill="#00529C" d="M55.3,83.4c0,0-60.1,63.4,2.5,171.3C116.2,355.4,46.1,384.5,91.2,448s280.5-5.8,261.3-155.6
			c-19.3-149.8-109.3-160.8-110-235.8C241.6-18.4,124.1,7.4,55.3,83.4z"/>
		<path fill="#00ABB5" d="M234.6,495.8c0,0,24.7-0.6,27.4-16.2c1.5-8.5-14.2,0.8-32.6,2.3c-18.4,1.5-24-0.2-22.1,4.4
			C209.2,490.9,221.7,496.1,234.6,495.8z"/>
		<path fill="#00529C" d="M310.6,67.7c0,0-14-34-39.9-29.5c-14,2.4,8.7,19.4,20.9,44.2c12.1,24.9,12.5,33.5,18.7,28.5
			C316.4,105.8,318,85.6,310.6,67.7z"/>
		<path fill="#00ABB5" d="M353.9,377.5c0,0,48.6-66.5-30-149.1c-73.4-77.1-9.4-115.5-63.8-162.6C205.7,18.7-13.7,122.7,29.3,250
			c43,127.3,132.9,120.2,145.7,185.6C187.8,500.8,298.8,456.6,353.9,377.5z"/>
		<path fill="#00ABB5" d="M266.3,27c0,0,10.8-7.9,3.6-16.9c-7.2-9.1-17.3-5.6-22.4-0.2c-5.1,5.4-4.1,12.7,2.1,17.3
			C255.9,31.8,263.1,29.3,266.3,27z"/>
		<path fill="#00ABB5" d="M306.7,21.7c0,0-0.7-7.1-7.3-6.7c-6.7,0.4-7.9,6-6.8,9.8c1.1,3.9,5.1,5.6,9.2,4.3
			C305.9,27.7,306.9,23.8,306.7,21.7z"/>
		<path fill="#00529C" d="M31.5,333c0,0,10.8-7.9,3.6-16.9c-7.2-9.1-17.3-5.6-22.4-0.2c-5.1,5.4-4.1,12.8,2.1,17.3
			C21,337.8,28.3,335.3,31.5,333z"/>
		<path fill="#00ABB5" d="M67.2,340.1c0,0-0.7-7.1-7.3-6.7c-6.7,0.4-7.9,6-6.8,9.8c1.1,3.9,5.1,5.6,9.2,4.3
			C66.4,346.2,67.4,342.3,67.2,340.1z"/>
		<path fill="#00ABB5" d="M37.6,368.2c0,0-0.7-7.1-7.3-6.7c-6.7,0.4-7.9,6-6.8,9.8c1.1,3.9,5.1,5.6,9.2,4.3
			C36.9,374.3,37.8,370.3,37.6,368.2z"/>
	</g>
	<g>
		<path fill="#00ABB5" d="M635.7,141.6c0,0-52.4,102.6,32.4,203.5c57.5,68.5,238.3,161,328.9,22.1
			c61.7-94.6-120.4-140.3-116.4-295.9C882.5-4.9,701.4-3.3,635.7,141.6z"/>
		<g>
			<path fill="#00ABB5" d="M988.3,275.7c-15.5-21.1-37-42.7-56.7-67.9C950.5,233.2,971.8,254.9,988.3,275.7z"/>
			<path fill="#00ABB5" d="M635.7,141.6c0,0-50.8,99.6,28.8,199.1c-70.9-96.7-22.7-191.1-22.7-191.1
				C697.1,27.5,834.4,7.1,875.1,49.2C844.5-2.9,694.2,12.4,635.7,141.6z"/>
		</g>
		<path fill="#00ABB5" d="M525.4,237.5c0,0,11.3-11.5,22-2c10.7,9.4,4.9,20.6-2.5,25.8c-7.5,5.2-16.7,3.1-21.8-4.6
			C518.1,249,522.1,240.9,525.4,237.5z"/>
		<path fill="#00ABB5" d="M589.4,242.6c0,0,4.2,7.8-2.9,11.5c-7.1,3.7-12.2-1.3-13.6-6c-1.5-4.7,1.4-9,6.5-10.2
			C584.5,236.8,588.1,240.3,589.4,242.6z"/>
		<path fill="#00ABB5" d="M561.5,172.8c0,0,14.6,35.6,6.3,45.4c-8.3,9.8-23.1-7.9-31.3-23.8c-8.2-15.9-9.8-34.7-2.1-36.9
			C542.2,155.4,555.3,156.8,561.5,172.8z"/>
		<path fill="#00ABB5" d="M761.2,485.4c0,0-34.7-30-18.2-56.1c8.9-14.1,19.4,17.9,43.9,41.9c24.5,24,34.7,28.2,26,32.6
			C804.1,508.4,779.4,501.3,761.2,485.4z"/>
		<path fill="#00ABB5" d="M946.4,68.4c0,0,11.3-11.5,22-2c10.7,9.4,4.9,20.6-2.5,25.8c-7.5,5.2-16.7,3.1-21.8-4.6
			C939,79.9,943.1,71.8,946.4,68.4z"/>
		<path fill="#00ABB5" d="M934.9,23.2c0,0,9,1.7,7.6,9.3c-1.4,7.6-8.6,8.4-13.3,6.6c-4.8-1.8-6.5-6.6-4.3-11.2
			C927.2,23.4,932.3,22.8,934.9,23.2z"/>
		<path fill="#00ABB5" d="M908.7,45.2c0,0,16,14,16.4,20.4c0.4,6.3-11.3,4.6-20,1.4c-8.6-3.2-13-9.1-13.8-13
			C890.3,49.5,897.2,36,908.7,45.2z"/>
	</g>
	<g>
		
			<linearGradient id="SVGID_11_" gradientUnits="userSpaceOnUse" x1="350.6288" y1="139.0144" x2="531.2829" y2="139.0144" gradientTransform="matrix(-1 0 0 -1 283.8669 279.4228)">
			<stop  offset="0" style="stop-color:#47D6CA"/>
			<stop  offset="1" style="stop-color:#5049E1"/>
		</linearGradient>
		<path opacity="0.26" fill="url(#SVGID_11_)" d="M-234.3,142.8c1.1,7.3,3.5,14.7,7.3,21.6c-5.4,21.4,4.3,41.4,26.4,46.1
			c30.9,6.5,30.7-10.6,79.4-6c48.8,4.6,43.1-43.3,43.3-44.1l0.1-0.8c2.3-3.8,3.3-6.3,3.3-6.3c24.4-57.9-14.5-96.7-47-80.7
			c-0.1,0-0.1,0.1-0.2,0.1c-7.8,2.6-23.6,6-45.4,1.2c-31.6-6.9-60.3-3.3-74.1,19C-253.2,112-246.2,132.2-234.3,142.8z"/>
		<linearGradient id="SVGID_12_" gradientUnits="userSpaceOnUse" x1="-197.8768" y1="166.0372" x2="-66.7605" y2="166.0372">
			<stop  offset="0" style="stop-color:#905AE3"/>
			<stop  offset="1" style="stop-color:#4531B7"/>
		</linearGradient>
		<path fill="url(#SVGID_12_)" d="M-197.9,204.7c0,0,19.1-10.3,50.8-3.4c31.6,6.9,60.3,3.3,74.1-19C-59.1,160-70.7,136.4-86,128
			C-101.3,119.6-197.9,204.7-197.9,204.7z"/>
		<linearGradient id="SVGID_13_" gradientUnits="userSpaceOnUse" x1="-240.6468" y1="125.1197" x2="-85.7222" y2="125.1197">
			<stop  offset="0" style="stop-color:#905AE3"/>
			<stop  offset="1" style="stop-color:#4531B7"/>
		</linearGradient>
		<path fill="url(#SVGID_13_)" d="M-236.3,114.8c0.2-0.7-5.5-48.7,43.3-44.1c48.8,4.6,48.5-12.5,79.4-6
			c30.9,6.5,37.6,42.8,12.8,71.2c-24.8,28.5-59.4,42.6-59.4,42.6s-19.2,13.2-47.6,6.7s-32.8-44.8-32.8-44.8L-236.3,114.8z"/>
		<linearGradient id="SVGID_14_" gradientUnits="userSpaceOnUse" x1="-247.416" y1="140.4084" x2="-79.2416" y2="140.4084">
			<stop  offset="0" style="stop-color:#47D6CA"/>
			<stop  offset="1" style="stop-color:#5049E1"/>
		</linearGradient>
		<path fill="url(#SVGID_14_)" d="M-239.8,121.9c0,0,20.8-52,92.2-47c71.4,5,85,83.2,49.3,102.8c-35.7,19.7-61.9,8.8-94.5,24.9
			C-225.3,218.7-264.2,179.8-239.8,121.9z"/>
		<linearGradient id="SVGID_15_" gradientUnits="userSpaceOnUse" x1="-247.416" y1="140.4084" x2="-79.2416" y2="140.4084">
			<stop  offset="0" style="stop-color:#47D6CA"/>
			<stop  offset="1" style="stop-color:#5049E1"/>
		</linearGradient>
		<path fill="url(#SVGID_15_)" d="M-239.8,121.9c0,0,20.8-52,92.2-47c71.4,5,85,83.2,49.3,102.8c-35.7,19.7-61.9,8.8-94.5,24.9
			C-225.3,218.7-264.2,179.8-239.8,121.9z"/>
		<path fill="#7D7DF4" d="M-138.4,76c60.3,12.7,70.2,82.6,36.7,101.1c-35.7,19.7-61.9,8.8-94.5,24.9c-6.5,3.2-13.2,4.2-19.6,3.3
			c7.5,1.8,15.5,1.1,23.1-2.7c32.5-16,58.8-5.2,94.5-24.9C-64.1,158.9-75,86.7-138.4,76z"/>
		<g>
			
				<linearGradient id="SVGID_16_" gradientUnits="userSpaceOnUse" x1="-119.3353" y1="202.3136" x2="-111.7201" y2="213.6166" gradientTransform="matrix(0.8587 0.5125 -0.5125 0.8587 46.2796 -57.1187)">
				<stop  offset="0" style="stop-color:#47D6CA"/>
				<stop  offset="1" style="stop-color:#5049E1"/>
			</linearGradient>
			<path fill="url(#SVGID_16_)" d="M-165,59.9c0,0,2.2-5.6,7.2-3.8c5,1.8,4.7,6.6,2.9,9.5c-1.8,2.9-5.2,3.5-8.1,1.4
				C-165.8,64.9-165.6,61.5-165,59.9z"/>
			
				<linearGradient id="SVGID_17_" gradientUnits="userSpaceOnUse" x1="61.298" y1="335.6335" x2="65.5349" y2="341.9222" gradientTransform="matrix(3.190000e-002 0.9995 -0.9995 3.190000e-002 161.1483 -21.4423)">
				<stop  offset="0" style="stop-color:#905AE3"/>
				<stop  offset="1" style="stop-color:#4531B7"/>
			</linearGradient>
			<path fill="url(#SVGID_17_)" d="M-176,49.5c0,0,3.3-0.7,3.9,2.2c0.6,2.9-1.7,4.2-3.6,4.2c-1.9,0-3.2-1.4-3.1-3.3
				C-178.6,50.6-176.9,49.7-176,49.5z"/>
			
				<linearGradient id="SVGID_18_" gradientUnits="userSpaceOnUse" x1="73.6304" y1="165.9375" x2="76.9331" y2="170.8396" gradientTransform="matrix(3.190000e-002 0.9995 -2.3757 7.590000e-002 216.0169 -22.835)">
				<stop  offset="0" style="stop-color:#905AE3"/>
				<stop  offset="1" style="stop-color:#4531B7"/>
			</linearGradient>
			<path fill="url(#SVGID_18_)" d="M-181.6,60.9c0,0,7.5,2.7,8.5,4.9c1.1,2.2-3.2,3.2-6.6,3.3c-3.4,0.1-5.7-1.4-6.6-2.6
				C-187.3,65-186.9,59.3-181.6,60.9z"/>
		</g>
		
			<linearGradient id="SVGID_19_" gradientUnits="userSpaceOnUse" x1="-202.3606" y1="128.814" x2="-193.1664" y2="142.4607" gradientTransform="matrix(0.9999 -1.430000e-002 5.420000e-002 3.7966 -69.3552 -355.9663)">
			<stop  offset="0" style="stop-color:#47D6CA"/>
			<stop  offset="1" style="stop-color:#5049E1"/>
		</linearGradient>
		<path fill="url(#SVGID_19_)" d="M-269.1,161.7c0,0-4.5-19.9,11.6-24.9c6-1.9,0.4,9.9,0.5,22.7c0.1,12.8,4.8,23.8,1.3,22.8
			C-259.2,181.3-268.5,170.7-269.1,161.7z"/>
		<g>
			<text transform="matrix(1 0 0 1 -202.3351 130.222)" fill="#FFFFFF" font-family="'Roboto-Bold'" font-size="14.1744">Lorem Ipsum</text>
			<rect x="-202.3" y="136.5" fill="none" width="74" height="23.9"/>
			<text transform="matrix(1 0 0 1 -202.3312 139.7127)"><tspan x="0" y="0" fill="#FFFFFF" font-family="'Lato-Regular'" font-size="4.3545">Lorem ipsum dolor sit amet, </tspan><tspan x="0" y="6" fill="#FFFFFF" font-family="'Lato-Regular'" font-size="4.3545">consectetur adipiscing elit. Sed </tspan><tspan x="0" y="11.9" fill="#FFFFFF" font-family="'Lato-Regular'" font-size="4.3545">posuere, ex nec gravida viverra, ante </tspan></text>
		</g>
		
			<linearGradient id="SVGID_20_" gradientUnits="userSpaceOnUse" x1="225.8426" y1="287.9651" x2="230.0795" y2="294.2538" gradientTransform="matrix(3.190000e-002 0.9995 -0.9995 3.190000e-002 161.1483 -21.4423)">
			<stop  offset="0" style="stop-color:#905AE3"/>
			<stop  offset="1" style="stop-color:#4531B7"/>
		</linearGradient>
		<path fill="url(#SVGID_20_)" d="M-123.1,212.4c0,0,3.3-0.7,3.9,2.2c0.6,2.9-1.7,4.2-3.6,4.2c-1.9,0-3.2-1.4-3.1-3.3
			C-125.7,213.6-124,212.6-123.1,212.4z"/>
		
			<linearGradient id="SVGID_21_" gradientUnits="userSpaceOnUse" x1="223.9524" y1="150.2869" x2="230.5808" y2="160.1252" gradientTransform="matrix(3.190000e-002 0.9995 -2.3757 7.590000e-002 216.0169 -22.835)">
			<stop  offset="0" style="stop-color:#905AE3"/>
			<stop  offset="1" style="stop-color:#4531B7"/>
		</linearGradient>
		<path fill="url(#SVGID_21_)" d="M-147.6,210.1c0,0,14.6,0.8,16.7,5.2c2.1,4.3-6.3,6.4-13.1,6.6c-6.8,0.2-13.6-2.3-13.1-5.2
			S-154.1,209.5-147.6,210.1z"/>
	</g>
</g>
<g id="DESIGNED_BY_FREEPIK">
</g>
</svg>
