<?xml version="1.0" encoding="utf-8"?>
<!-- Generator: Adobe Illustrator 16.0.0, SVG Export Plug-In . SVG Version: 6.00 Build 0)  -->
<!DOCTYPE svg PUBLIC "-//W3C//DTD SVG 1.1//EN" "http://www.w3.org/Graphics/SVG/1.1/DTD/svg11.dtd">
<svg version="1.1" xmlns="http://www.w3.org/2000/svg" xmlns:xlink="http://www.w3.org/1999/xlink" x="0px" y="0px" width="1200px"
	 height="741.083px" viewBox="0 0 1200 741.083" enable-background="new 0 0 1200 741.083" xml:space="preserve">
<g id="bg">
</g>
<g id="badges">
	<g>
		
			<linearGradient id="SVGID_1_" gradientUnits="userSpaceOnUse" x1="583.6133" y1="406.5684" x2="728.7891" y2="523.4171" gradientTransform="matrix(1.3061 0.2558 0.1999 -1.0206 -62.1089 561.998)">
			<stop  offset="0" style="stop-color:#160247"/>
			<stop  offset="1" style="stop-color:#280770"/>
		</linearGradient>
		<path fill="url(#SVGID_1_)" d="M1056.846,443.795c-47.034-37.794-74.075-85.033-103.431-130.268
			c-29.356-45.236-64.359-91.625-120.544-121.973c-60.182-32.507-136.211-41.96-198.217-72.406
			C592.248,98.323,559.852,69.57,529.81,39.092c36.303,0.684,72.604,1.367,108.907,2.054c92.179,1.739,188.464,4.222,275.041,36.428
			c117.955,43.876,194.646,135.069,235.1,224.991c28.598,63.564,42.113,131.239,32.641,193.8
			C1136.183,491.282,1089.916,470.367,1056.846,443.795z"/>
		
			<linearGradient id="SVGID_2_" gradientUnits="userSpaceOnUse" x1="431.5371" y1="179.6611" x2="522.1035" y2="444.8907" gradientTransform="matrix(1.3061 0.2558 0.1999 -1.0206 -62.1089 561.998)">
			<stop  offset="0" style="stop-color:#2A0A5C"/>
			<stop  offset="1" style="stop-color:#3E1799"/>
		</linearGradient>
		<path fill="url(#SVGID_2_)" d="M1000.432,531.807c-58.602-38.457-100.98-87.517-146.941-133.83
			c-45.965-46.313-99.1-92.222-168.646-117.792c-124.19-45.662-259.81-14.57-391.473-15.25
			c-83.864-0.432-169.85-15.15-250.274-41.613c18.465-26.719,41.842-51.322,64.029-77.188c33.272-38.791,49.38-79.811,114.005-97.62
			C272.229,34.433,330.944,35.34,388.15,36.419c47.219,0.891,94.439,1.783,141.659,2.673c30.042,30.478,62.438,59.23,104.845,80.056
			c62.006,30.446,138.035,39.899,198.217,72.406c56.185,30.348,91.188,76.737,120.544,121.973
			c29.355,45.235,56.396,92.474,103.431,130.268c33.07,26.571,79.337,47.487,124.652,52.57
			c-4.811,31.761-15.594,62.187-33.295,90.103C1095.785,581.014,1042.529,559.433,1000.432,531.807z"/>
		
			<linearGradient id="SVGID_3_" gradientUnits="userSpaceOnUse" x1="452.8794" y1="-32.9585" x2="465.3922" y2="214.1667" gradientTransform="matrix(1.3061 0.2558 0.1999 -1.0206 -62.1089 561.998)">
			<stop  offset="0" style="stop-color:#4215A3"/>
			<stop  offset="1" style="stop-color:#8443FF"/>
		</linearGradient>
		<path fill="url(#SVGID_3_)" d="M740.804,686.44c-111.67-44.804-183.597-139.226-300.974-172.519
			c-110.09-31.226-237.042-1.089-336.161-50.787c-24.342-12.204-43.864-28.083-58.728-46.019
			c109.809,9.995,215.476-7.994,320.706-20.811c108.094-13.166,224.556-20.205,333.109,12.944
			c104.756,31.987,186.9,96.557,269.74,155.445c39.582,28.137,82.182,56.124,127.774,78.943
			C1011.153,709.854,863.49,735.664,740.804,686.44z"/>
		
			<linearGradient id="SVGID_4_" gradientUnits="userSpaceOnUse" x1="457.7549" y1="321.3906" x2="451.5045" y2="58.8694" gradientTransform="matrix(1.3061 0.2558 0.1999 -1.0206 -62.1089 561.998)">
			<stop  offset="0" style="stop-color:#6734CF"/>
			<stop  offset="1" style="stop-color:#2F0C6E"/>
		</linearGradient>
		<path fill="url(#SVGID_4_)" d="M698.756,409.249C590.203,376.1,473.741,383.14,365.647,396.305
			c-105.229,12.817-210.897,30.806-320.706,20.811C12.673,378.183,2.39,329.531,12.668,287.564
			c5.758-23.509,16.753-44.455,30.429-64.243c80.424,26.463,166.41,41.181,250.274,41.613
			c131.663,0.68,267.282-30.411,391.473,15.25c69.547,25.571,122.682,71.48,168.646,117.792
			c45.961,46.313,88.34,95.373,146.941,133.83c42.098,27.625,95.354,49.207,147.771,54.661
			c-6.331,9.983-13.498,19.664-21.657,28.946c-8.851,10.069-19.042,19.482-30.275,28.224
			c-45.593-22.819-88.192-50.806-127.774-78.943C885.656,505.806,803.512,441.236,698.756,409.249z"/>
	</g>
</g>
</svg>
