<?xml version="1.0" encoding="utf-8"?>
<!-- Generator: Adobe Illustrator 18.0.0, SVG Export Plug-In . SVG Version: 6.00 Build 0)  -->
<!DOCTYPE svg PUBLIC "-//W3C//DTD SVG 1.1//EN" "http://www.w3.org/Graphics/SVG/1.1/DTD/svg11.dtd">
<svg version="1.1" xmlns="http://www.w3.org/2000/svg" xmlns:xlink="http://www.w3.org/1999/xlink" x="0px" y="0px"
	 viewBox="0 0 800 311" enable-background="new 0 0 800 311" xml:space="preserve">
<g id="_x31_22">
	<path fill="#E5E5E5" d="M-559,38l81.9-2.8c81.9-2.9,245.8-8.5,409.3,15c163.7,23.5,326.8,76.1,490.5,65.6
		c163.5-10.5,327.4-84.1,409.3-121L914-42v363c-308.5,0-616.9,0-925.4,0c-154.2,0-308.5,0-462.7,0c-6.3,0-85,0.1-85-0.1
		c0-2.1,0-4.1,0-6.2c0-11.3,0-22.5,0-33.8C-559,199.9-559,119-559,38z"/>
</g>
<g id="Layer_1">
</g>
</svg>
