<?xml version="1.0" encoding="utf-8"?>
<!-- Generator: Adobe Illustrator 16.0.0, SVG Export Plug-In . SVG Version: 6.00 Build 0)  -->
<!DOCTYPE svg PUBLIC "-//W3C//DTD SVG 1.1//EN" "http://www.w3.org/Graphics/SVG/1.1/DTD/svg11.dtd">
<svg version="1.1" id="Layer_1" xmlns="http://www.w3.org/2000/svg" xmlns:xlink="http://www.w3.org/1999/xlink" x="0px" y="0px"
	 width="1200px" height="786.082px" viewBox="0 0 1200 786.082" enable-background="new 0 0 1200 786.082" xml:space="preserve">
<g id="bg">
</g>
<path fill="#0E1466" stroke="#000000" stroke-miterlimit="10" d="M1055.507,518.349c-41.777-43.533-62.514-93.859-85.802-142.498
	c-23.287-48.638-52.027-99.148-103.839-136.476c-55.496-39.984-129.676-59.146-187.247-97.32
	c-39.373-26.111-67.798-58.794-93.667-92.887c35.913,5.351,71.824,10.702,107.736,16.057
	c91.189,13.591,186.354,28.448,268.063,71.53c111.325,58.696,175.641,159.002,204.181,253.384
	c20.177,66.716,24.868,135.567,7.422,196.39C1128.071,575.654,1084.883,548.957,1055.507,518.349z"/>
<path fill="#10318E" stroke="#000000" stroke-miterlimit="10" d="M988.232,598.367c-53.163-45.682-88.875-99.787-128.49-151.631
	c-39.621-51.845-86.402-104.212-152.08-138.522c-117.278-61.269-255.771-47.895-386.252-65.519
	c-83.11-11.225-166.485-36.889-242.834-73.484c21.752-24.12,48.1-45.509,73.433-68.303c37.989-34.186,59.244-72.79,125.623-82.132
	c52.485-7.386,110.595,1.072,167.186,9.506c46.711,6.962,93.424,13.925,140.137,20.887c25.869,34.092,54.293,66.775,93.667,92.887
	c57.571,38.174,131.751,57.336,187.247,97.32c51.812,37.328,80.551,87.838,103.84,136.476
	c23.287,48.638,44.022,98.966,85.801,142.499c29.376,30.607,72.563,57.305,116.849,68.18c-8.859,30.877-23.47,59.662-44.617,85.066
	C1076.457,659.439,1026.424,631.181,988.232,598.367z"/>
<linearGradient id="SVGID_1_" gradientUnits="userSpaceOnUse" x1="475.8176" y1="1066.6206" x2="488.3304" y2="819.4949" gradientTransform="matrix(1.2623 0.4218 -0.3296 0.9864 242.3773 -537.7563)">
	<stop  offset="0" style="stop-color:#0064B0"/>
	<stop  offset="0.4301" style="stop-color:#0052A4"/>
</linearGradient>
<path fill="url(#SVGID_1_)" stroke="#000000" stroke-miterlimit="10" d="M710.858,718.292
	c-104.974-58.809-164.146-161.703-276.26-209.828c-105.155-45.139-234.93-31.596-326.826-93.639
	c-22.567-15.236-39.884-33.496-52.314-53.197c107.607,24.048,214.712,19.812,320.716,20.647
	c108.89,0.86,225.288,8.87,328.672,55.718c99.765,45.207,172.914,119.813,247.482,188.875
	c35.632,32.998,74.274,66.234,116.551,94.734C975.945,776.312,826.188,782.898,710.858,718.292z"/>
<path fill="#0B40B5" stroke="#000000" stroke-miterlimit="10" d="M704.845,437.994c-103.384-46.848-219.782-54.858-328.672-55.718
	c-106.004-0.835-213.108,3.401-320.716-20.647c-26.988-42.763-30.922-92.333-15.328-132.628
	c8.736-22.572,22.336-41.928,38.446-59.791c76.349,36.596,159.724,62.26,242.834,73.484c130.479,17.624,268.974,4.25,386.252,65.519
	c65.678,34.311,112.459,86.678,152.08,138.521c39.615,51.844,75.327,105.951,128.49,151.633
	c38.191,32.813,88.226,61.072,139.506,73.229c-7.563,9.084-15.918,17.764-25.203,25.916c-10.072,8.848-21.392,16.869-33.656,24.094
	c-42.275-28.5-80.919-61.738-116.55-94.736C877.759,557.806,804.61,483.201,704.845,437.994z"/>
</svg>
