<?xml version="1.0" encoding="utf-8"?>
<!-- Generator: Adobe Illustrator 18.0.0, SVG Export Plug-In . SVG Version: 6.00 Build 0)  -->
<!DOCTYPE svg PUBLIC "-//W3C//DTD SVG 1.1//EN" "http://www.w3.org/Graphics/SVG/1.1/DTD/svg11.dtd">
<svg version="1.1" xmlns="http://www.w3.org/2000/svg" xmlns:xlink="http://www.w3.org/1999/xlink" x="0px" y="0px"
	 viewBox="0 0 800 186.7" enable-background="new 0 0 800 186.7" xml:space="preserve">
<g id="_x31_23">
	<g>
		<path fill="#00529C" d="M800,124.6l-44.5-14.1C711,96.4,622,68.2,533.2,56.5c-88.9-11.8-177.5-7.1-266.4-12.9
			C178,37.7,89,21.2,44.5,13L0,4.7v207.6c259.7,0,519.3,0,779,0c7,0,14,0,21,0V124.6z"/>
		<path fill="#00ABB5" d="M0,104.4l44.5-8.3C89,87.7,178,71.1,266.8,82.7c88.9,11.7,177.5,51.7,266.4,48
			c88.8-3.6,177.8-51,222.3-74.6L800,32.4v177c-259.7,0-519.3,0-779,0c-7,0-14,0-21,0V104.4z"/>
		<path fill="#FFFFFF" d="M0,174.4l44.5-15.7c44.5-15.6,133.5-47,222.3-43.8c88.9,3.2,177.5,40.8,266.4,47.7
			c88.8,6.8,177.8-17.2,222.3-29.2l44.5-12v94c-259.7,0-519.3,0-779,0c-7,0-14,0-21,0V174.4z"/>
	</g>
</g>
<g id="Layer_1">
</g>
</svg>
