<svg xmlns="http://www.w3.org/2000/svg" xmlns:xlink="http://www.w3.org/1999/xlink" width="600" zoomAndPan="magnify" viewBox="0 0 450 449.999984" height="600" preserveAspectRatio="xMidYMid meet" version="1.0"><path fill="#00abb5" d="M 112.109375 169.691406 C 77.417969 196.003906 60.84375 182.792969 38.5 205.523438 C 4.71875 239.960938 6.054688 307.660156 29.09375 354.609375 C 65.816406 429.476562 153.535156 442.898438 168.714844 445.199219 C 291.019531 463.808594 378.042969 361.1875 381.890625 356.535156 C 453.09375 270.011719 434.222656 166.484375 423.371094 107.394531 C 412.308594 46.808594 392.582031 29.375 383.761719 22.476562 C 336.027344 -13.40625 263.4375 16.378906 253.601562 20.550781 C 218.429688 35.523438 196.621094 59.320312 181.917969 75.308594 C 140.972656 119.855469 148.191406 142.3125 112.109375 169.691406 Z M 112.109375 169.691406 " fill-opacity="1" fill-rule="nonzero"/></svg>